<svg width="252" height="109" viewBox="0 0 252 109" fill="none" xmlns="http://www.w3.org/2000/svg">
<path d="M148 97H143V11H148V97Z" fill="white"/>
<path d="M195.62 71.46C193.993 72.8434 192.178 73.9095 190.176 74.6582C188.174 75.3906 186.09 75.7568 183.926 75.7568C182.266 75.7568 180.662 75.5371 179.116 75.0977C177.586 74.6745 176.154 74.0723 174.819 73.291C173.485 72.4935 172.264 71.5495 171.157 70.459C170.05 69.3522 169.106 68.1315 168.325 66.7969C167.544 65.446 166.934 63.9974 166.494 62.4512C166.071 60.9049 165.859 59.3018 165.859 57.6416C165.859 55.9814 166.071 54.3864 166.494 52.8564C166.934 51.3265 167.544 49.8942 168.325 48.5596C169.106 47.2087 170.05 45.988 171.157 44.8975C172.264 43.7907 173.485 42.8467 174.819 42.0654C176.154 41.2842 177.586 40.682 179.116 40.2588C180.662 39.8193 182.266 39.5996 183.926 39.5996C186.09 39.5996 188.174 39.974 190.176 40.7227C192.178 41.4551 193.993 42.513 195.62 43.8965L191.958 50C190.9 48.9258 189.679 48.0876 188.296 47.4854C186.912 46.8669 185.456 46.5576 183.926 46.5576C182.396 46.5576 180.955 46.8506 179.604 47.4365C178.27 48.0225 177.098 48.82 176.089 49.8291C175.08 50.8219 174.282 51.9938 173.696 53.3447C173.11 54.6794 172.817 56.1117 172.817 57.6416C172.817 59.1878 173.11 60.6364 173.696 61.9873C174.282 63.3382 175.08 64.5182 176.089 65.5273C177.098 66.5365 178.27 67.334 179.604 67.9199C180.955 68.5059 182.396 68.7988 183.926 68.7988C184.805 68.7988 185.659 68.693 186.489 68.4814C187.319 68.2699 188.109 67.9769 188.857 67.6025V57.6416H195.62V71.46ZM229.067 57.4951C229.067 59.1064 228.856 60.6608 228.433 62.1582C228.026 63.6393 227.44 65.0309 226.675 66.333C225.91 67.6188 224.998 68.7988 223.94 69.873C222.882 70.931 221.702 71.8424 220.4 72.6074C219.098 73.3724 217.699 73.9665 216.201 74.3896C214.72 74.7965 213.174 75 211.562 75H201.016V39.9902H211.562C213.174 39.9902 214.72 40.2018 216.201 40.625C217.699 41.0319 219.098 41.6178 220.4 42.3828C221.702 43.1478 222.882 44.0674 223.94 45.1416C224.998 46.1995 225.91 47.3796 226.675 48.6816C227.44 49.9674 228.026 51.359 228.433 52.8564C228.856 54.3376 229.067 55.8838 229.067 57.4951ZM222.061 57.4951C222.061 56.0465 221.784 54.6875 221.23 53.418C220.693 52.1484 219.945 51.0417 218.984 50.0977C218.04 49.1374 216.925 48.3805 215.64 47.8271C214.37 47.2738 213.011 46.9971 211.562 46.9971H208.071V67.9932H211.562C213.011 67.9932 214.37 67.7246 215.64 67.1875C216.925 66.6341 218.04 65.8854 218.984 64.9414C219.945 63.9811 220.693 62.8662 221.23 61.5967C221.784 60.3109 222.061 58.9437 222.061 57.4951Z" fill="#C4C4CC"/>
<path d="M53.625 78.3438L17.875 85.1563V23.8438L53.625 17.0313" stroke="#996DFF" stroke-width="6" stroke-linecap="round" stroke-linejoin="round"/>
<path d="M89.375 91.9688L53.625 78.3438V17.0313L89.375 30.6563V91.9688Z" stroke="#996DFF" stroke-width="6" stroke-linecap="round" stroke-linejoin="round"/>
<path d="M89.375 30.6562L125.125 23.8437V85.1562L89.375 91.9687" stroke="#996DFF" stroke-width="6" stroke-linecap="round" stroke-linejoin="round"/>
</svg>
